<?xml version="1.0" encoding="UTF-8"?>
<svg xmlns="http://www.w3.org/2000/svg" viewBox="0 0 927 927" role="img" aria-labelledby="title desc">
  <title id="title">Marca de Mateus Ribeiro Marcos</title>
  <desc id="desc">Contorno circular dourado com cérebro estilizado ao centro.</desc>
  <rect width="927" height="927" fill="#000000"/>
  <path fill="#C59652" fill-rule="evenodd" d="M486 886 L442 886 L442 885 L429 885 L429 884 L419 884 L419 883 L408 883 L408 882 L401 882 L401 881 L396 881 L396 880 L390 880 L390 879 L385 879 L385 878 L374 877 L374 876 L370 876 L370 875 L366 875 L366 874 L362 874 L362 873 L358 873 L358 872 L353 872 L353 871 L350 871 L350 870 L347 870 L347 869 L339 868 L339 867 L336 867 L336 866 L333 866 L333 865 L330 865 L330 864 L326 864 L326 863 L324 863 L324 862 L318 861 L318 860 L313 859 L313 858 L311 858 L311 857 L308 857 L308 856 L306 856 L306 855 L303 855 L303 854 L300 854 L300 853 L298 853 L298 852 L295 852 L295 851 L293 851 L293 850 L291 850 L291 849 L289 849 L289 848 L286 848 L286 847 L282 846 L281 844 L278 844 L278 843 L276 843 L276 842 L274 842 L274 841 L272 841 L272 840 L270 840 L270 839 L266 838 L265 836 L262 836 L261 834 L259 834 L259 833 L255 832 L254 830 L248 828 L247 826 L243 825 L242 823 L238 822 L237 820 L235 820 L234 818 L232 818 L231 816 L229 816 L228 814 L226 814 L225 812 L223 812 L222 810 L220 810 L219 808 L217 808 L215 805 L213 805 L213 804 L210 803 L208 800 L206 800 L203 796 L201 796 L198 792 L196 792 L192 787 L190 787 L188 784 L186 784 L186 782 L184 782 L184 781 L183 781 L178 775 L176 775 L176 774 L175 774 L175 773 L174 773 L174 772 L173 772 L173 771 L172 771 L172 770 L171 770 L171 769 L170 769 L170 768 L169 768 L169 767 L168 767 L168 766 L167 766 L167 765 L166 765 L166 764 L165 764 L165 763 L164 763 L164 762 L163 762 L163 761 L162 761 L162 760 L161 760 L161 759 L160 759 L160 758 L159 758 L159 757 L158 757 L158 756 L157 756 L157 755 L156 755 L156 754 L155 754 L155 753 L154 753 L154 752 L153 752 L153 751 L147 746 L147 744 L146 744 L146 743 L142 740 L142 738 L141 738 L141 737 L135 732 L135 730 L134 730 L134 729 L131 727 L131 725 L127 722 L127 720 L124 718 L124 716 L120 713 L120 711 L118 710 L118 708 L115 706 L115 704 L114 704 L113 701 L110 699 L109 695 L107 694 L107 692 L105 691 L105 689 L103 688 L103 686 L101 685 L101 683 L99 682 L97 676 L95 675 L95 673 L94 673 L94 671 L92 670 L92 668 L91 668 L89 662 L87 661 L86 656 L84 655 L84 653 L83 653 L83 651 L82 651 L82 649 L81 649 L81 647 L80 647 L80 644 L78 643 L78 640 L76 639 L76 636 L75 636 L75 634 L74 634 L74 632 L73 632 L73 630 L72 630 L72 628 L71 628 L70 622 L69 622 L69 620 L68 620 L68 618 L67 618 L67 616 L66 616 L65 610 L64 610 L64 608 L63 608 L63 605 L62 605 L62 602 L61 602 L61 599 L60 599 L60 596 L59 596 L59 593 L58 593 L58 590 L57 590 L57 587 L56 587 L56 584 L55 584 L55 581 L54 581 L54 577 L53 577 L53 574 L52 574 L52 570 L51 570 L51 566 L50 566 L50 562 L49 562 L49 558 L48 558 L48 554 L47 554 L47 550 L46 550 L46 544 L45 544 L45 539 L44 539 L44 534 L43 534 L42 522 L41 522 L40 505 L39 505 L39 496 L38 496 L38 483 L37 483 L37 429 L38 429 L38 418 L39 418 L39 410 L40 410 L40 400 L41 400 L41 393 L42 393 L42 388 L43 388 L43 383 L44 383 L44 377 L45 377 L45 372 L46 372 L46 366 L47 366 L47 363 L48 363 L48 359 L49 359 L49 355 L50 355 L50 351 L51 351 L52 343 L53 343 L53 340 L54 340 L54 337 L55 337 L56 329 L57 329 L57 327 L58 327 L58 324 L59 324 L59 321 L60 321 L60 318 L61 318 L62 312 L63 312 L63 310 L64 310 L64 307 L65 307 L65 304 L66 304 L66 302 L67 302 L67 300 L68 300 L68 297 L69 297 L69 295 L70 295 L70 292 L71 292 L71 290 L72 290 L72 288 L73 288 L73 286 L74 286 L74 283 L75 283 L75 281 L76 281 L76 279 L77 279 L79 273 L80 273 L81 268 L83 267 L83 265 L84 265 L84 263 L85 263 L85 261 L86 261 L88 255 L90 254 L90 251 L92 250 L93 246 L95 245 L95 243 L96 243 L96 241 L98 240 L99 236 L101 235 L102 231 L105 229 L106 225 L108 224 L108 222 L110 221 L110 219 L112 218 L112 216 L115 214 L115 212 L117 211 L117 209 L120 207 L120 205 L122 204 L122 202 L123 202 L123 201 L125 200 L125 198 L130 194 L130 192 L135 188 L135 186 L140 182 L140 180 L146 175 L146 173 L147 173 L147 172 L148 172 L148 171 L149 171 L149 170 L150 170 L150 169 L151 169 L151 168 L152 168 L152 167 L153 167 L153 166 L154 166 L154 165 L155 165 L155 164 L156 164 L156 163 L157 163 L157 162 L158 162 L158 161 L159 161 L159 160 L160 160 L160 159 L161 159 L161 158 L162 158 L162 157 L163 157 L163 156 L164 156 L164 155 L165 155 L165 154 L166 154 L166 153 L167 153 L167 152 L168 152 L168 151 L169 151 L169 150 L170 150 L170 149 L171 149 L176 143 L177 143 L177 142 L179 142 L179 141 L180 141 L185 135 L187 135 L191 130 L193 130 L193 129 L194 129 L197 125 L199 125 L202 121 L204 121 L205 119 L207 119 L210 115 L214 114 L217 110 L219 110 L220 108 L222 108 L223 106 L225 106 L226 104 L228 104 L229 102 L231 102 L232 100 L234 100 L235 98 L237 98 L238 96 L240 96 L240 95 L242 95 L243 93 L247 92 L248 90 L250 90 L250 89 L254 88 L255 86 L257 86 L257 85 L259 85 L259 84 L265 82 L266 80 L269 80 L270 78 L272 78 L272 77 L274 77 L274 76 L276 76 L276 75 L279 75 L280 73 L282 73 L282 72 L284 72 L284 71 L286 71 L286 70 L289 70 L289 69 L291 69 L291 68 L293 68 L293 67 L295 67 L295 66 L298 66 L298 65 L300 65 L300 64 L304 64 L304 63 L306 63 L306 62 L308 62 L308 61 L314 60 L314 59 L316 59 L316 58 L318 58 L318 57 L321 57 L321 56 L324 56 L324 55 L327 55 L327 54 L330 54 L330 53 L333 53 L333 52 L336 52 L336 51 L339 51 L339 50 L343 50 L343 49 L346 49 L346 48 L350 48 L350 47 L353 47 L353 46 L366 44 L366 43 L369 43 L369 42 L374 42 L374 41 L379 41 L379 40 L384 40 L384 39 L390 39 L390 38 L395 38 L395 37 L401 37 L401 36 L408 36 L408 35 L427 34 L427 33 L441 33 L441 32 L488 32 L488 33 L502 33 L502 34 L512 34 L512 35 L528 36 L528 37 L534 37 L534 38 L539 38 L539 39 L551 40 L551 41 L556 41 L556 42 L560 42 L560 43 L564 43 L564 44 L568 44 L568 45 L576 46 L576 47 L579 47 L579 48 L583 48 L583 49 L586 49 L586 50 L590 50 L590 51 L593 51 L593 52 L596 52 L596 53 L599 53 L599 54 L602 54 L602 55 L605 55 L605 56 L611 57 L611 58 L613 58 L613 59 L616 59 L616 60 L622 61 L622 62 L624 62 L624 63 L626 63 L626 64 L632 65 L632 66 L634 66 L634 67 L636 67 L636 68 L638 68 L638 69 L640 69 L640 70 L642 70 L642 71 L644 71 L644 72 L647 72 L647 73 L649 73 L649 74 L651 74 L651 75 L653 75 L653 76 L655 76 L655 77 L657 77 L657 78 L659 78 L659 79 L661 79 L661 80 L663 80 L663 81 L669 83 L670 85 L676 87 L677 89 L681 90 L682 92 L686 93 L687 95 L691 96 L692 98 L696 99 L697 101 L699 101 L700 103 L702 103 L703 105 L705 105 L706 107 L708 107 L710 110 L712 110 L713 112 L715 112 L717 115 L719 115 L720 117 L722 117 L725 121 L727 121 L727 122 L728 122 L730 125 L732 125 L735 129 L737 129 L742 135 L744 135 L744 136 L745 136 L750 142 L752 142 L752 143 L753 143 L753 144 L754 144 L754 145 L755 145 L755 146 L756 146 L756 147 L757 147 L757 148 L758 148 L758 149 L759 149 L764 155 L766 155 L766 156 L769 158 L769 160 L770 160 L770 161 L771 161 L771 162 L772 162 L772 163 L773 163 L773 164 L774 164 L774 165 L775 165 L775 166 L776 166 L776 167 L782 172 L782 174 L783 174 L783 175 L784 175 L784 176 L790 181 L790 183 L794 186 L794 188 L798 191 L798 193 L802 196 L802 198 L803 198 L803 199 L806 201 L806 203 L809 205 L809 207 L810 207 L811 210 L814 212 L814 214 L816 215 L816 217 L818 218 L818 220 L820 221 L820 223 L822 224 L822 226 L824 227 L824 229 L825 229 L826 232 L828 233 L829 237 L830 237 L831 240 L833 241 L833 243 L834 243 L836 249 L838 250 L838 252 L839 252 L841 258 L842 258 L843 261 L844 261 L844 264 L846 265 L846 267 L847 267 L847 269 L848 269 L848 271 L849 271 L849 274 L850 274 L850 276 L851 276 L851 278 L852 278 L852 280 L853 280 L853 282 L854 282 L855 287 L857 288 L858 294 L859 294 L859 296 L860 296 L860 298 L861 298 L861 300 L862 300 L862 303 L863 303 L864 309 L865 309 L866 314 L867 314 L867 316 L868 316 L868 319 L869 319 L869 323 L870 323 L871 329 L872 329 L872 331 L873 331 L874 339 L875 339 L875 342 L876 342 L876 345 L877 345 L877 349 L878 349 L878 353 L879 353 L879 358 L880 358 L881 365 L882 365 L882 370 L883 370 L883 374 L884 374 L884 381 L885 381 L885 386 L886 386 L886 392 L887 392 L887 398 L888 398 L889 416 L890 416 L890 428 L891 428 L891 445 L892 445 L892 482 L891 482 L891 495 L890 495 L889 515 L888 515 L887 528 L886 528 L886 533 L885 533 L885 538 L884 538 L884 544 L883 544 L883 549 L882 549 L882 553 L881 553 L881 557 L880 557 L880 561 L879 561 L878 570 L877 570 L877 573 L876 573 L876 576 L875 576 L875 580 L874 580 L874 584 L873 584 L872 590 L871 590 L871 592 L870 592 L870 595 L869 595 L869 598 L868 598 L868 602 L867 602 L866 607 L865 607 L865 609 L864 609 L864 612 L863 612 L862 618 L861 618 L861 620 L860 620 L860 622 L859 622 L859 625 L858 625 L858 627 L857 627 L857 629 L856 629 L856 631 L855 631 L855 634 L854 634 L854 636 L853 636 L853 638 L852 638 L852 640 L851 640 L851 642 L850 642 L850 644 L849 644 L849 646 L848 646 L848 648 L847 648 L847 650 L846 650 L846 653 L844 654 L844 656 L843 656 L841 662 L839 663 L839 666 L837 667 L836 671 L834 672 L832 678 L830 679 L829 683 L828 683 L827 686 L825 687 L824 691 L823 691 L822 694 L819 696 L818 700 L815 702 L815 704 L814 704 L813 707 L810 709 L810 711 L809 711 L808 714 L805 716 L805 718 L804 718 L804 719 L801 721 L801 723 L798 725 L798 727 L797 727 L797 728 L792 732 L792 734 L791 734 L791 735 L785 740 L785 742 L784 742 L784 743 L783 743 L783 744 L777 749 L777 751 L774 752 L774 754 L773 754 L773 755 L772 755 L772 756 L771 756 L771 757 L770 757 L770 758 L769 758 L769 759 L768 759 L768 760 L767 760 L767 761 L766 761 L766 762 L765 762 L765 763 L764 763 L764 764 L763 764 L763 765 L762 765 L762 766 L761 766 L756 772 L754 772 L754 773 L753 773 L748 779 L746 779 L742 784 L740 784 L736 789 L734 789 L734 791 L732 791 L732 792 L731 792 L730 794 L728 794 L725 798 L723 798 L721 801 L719 801 L718 803 L716 803 L713 807 L709 808 L707 811 L705 811 L704 813 L702 813 L701 815 L699 815 L698 817 L696 817 L696 818 L693 819 L692 821 L688 822 L688 823 L685 824 L684 826 L678 828 L678 829 L675 830 L674 832 L671 832 L671 833 L669 833 L668 835 L666 835 L666 836 L664 836 L664 837 L662 837 L662 838 L660 838 L660 839 L658 839 L658 840 L656 840 L656 841 L654 841 L654 842 L652 842 L652 843 L650 843 L650 844 L648 844 L648 845 L646 845 L646 846 L644 846 L644 847 L642 847 L642 848 L639 848 L639 849 L637 849 L637 850 L635 850 L635 851 L633 851 L633 852 L630 852 L630 853 L628 853 L628 854 L625 854 L625 855 L623 855 L623 856 L621 856 L621 857 L618 857 L618 858 L615 858 L615 859 L613 859 L613 860 L610 860 L610 861 L607 861 L607 862 L604 862 L604 863 L601 863 L601 864 L595 865 L595 866 L593 866 L593 867 L589 867 L589 868 L585 868 L585 869 L582 869 L582 870 L579 870 L579 871 L575 871 L575 872 L572 872 L572 873 L568 873 L568 874 L563 874 L563 875 L559 875 L559 876 L555 876 L555 877 L549 877 L549 878 L544 878 L544 879 L539 879 L539 880 L526 881 L526 882 L521 882 L521 883 L510 883 L510 884 L500 884 L500 885 L486 885 Z M483 859 L483 858 L497 858 L497 857 L508 857 L508 856 L524 855 L524 854 L531 854 L531 853 L536 853 L536 852 L541 852 L541 851 L551 850 L551 849 L555 849 L555 848 L559 848 L559 847 L563 847 L563 846 L567 846 L567 845 L575 844 L575 843 L578 843 L578 842 L581 842 L581 841 L584 841 L584 840 L588 840 L588 839 L594 838 L594 837 L596 837 L596 836 L599 836 L599 835 L605 834 L605 833 L607 833 L607 832 L610 832 L610 831 L612 831 L612 830 L615 830 L615 829 L617 829 L617 828 L620 828 L620 827 L622 827 L622 826 L625 826 L625 825 L627 825 L627 824 L629 824 L629 823 L631 823 L631 822 L633 822 L633 821 L635 821 L635 820 L638 820 L638 819 L642 818 L643 816 L646 816 L646 815 L648 815 L649 813 L651 813 L651 812 L653 812 L653 811 L655 811 L655 810 L661 808 L662 806 L668 804 L668 803 L671 802 L672 800 L676 799 L677 797 L681 796 L682 794 L684 794 L685 792 L687 792 L688 790 L690 790 L692 787 L694 787 L695 785 L697 785 L699 782 L701 782 L701 781 L704 780 L707 776 L709 776 L711 773 L713 773 L716 769 L718 769 L721 765 L723 765 L723 764 L724 764 L728 759 L730 759 L730 758 L731 758 L731 757 L732 757 L732 756 L733 756 L733 755 L734 755 L734 754 L735 754 L735 753 L736 753 L736 752 L737 752 L737 751 L738 751 L743 745 L745 745 L745 744 L750 740 L750 738 L751 738 L752 736 L755 735 L755 733 L756 733 L756 732 L757 732 L757 731 L758 731 L758 730 L764 725 L764 723 L766 723 L766 721 L767 721 L767 720 L771 717 L771 715 L776 711 L776 709 L779 707 L779 705 L782 703 L782 701 L786 698 L786 696 L789 694 L789 692 L792 690 L792 688 L794 687 L794 685 L796 684 L796 682 L798 681 L798 679 L800 678 L800 676 L801 676 L802 673 L804 672 L804 670 L805 670 L805 668 L807 667 L808 663 L810 662 L812 656 L814 655 L814 653 L815 653 L815 651 L816 651 L818 645 L820 644 L820 642 L821 642 L821 640 L822 640 L822 638 L823 638 L823 636 L824 636 L824 634 L825 634 L825 632 L826 632 L826 629 L827 629 L828 625 L830 624 L830 621 L831 621 L831 618 L832 618 L832 616 L833 616 L833 614 L834 614 L834 612 L835 612 L835 609 L836 609 L836 607 L837 607 L838 601 L839 601 L839 599 L840 599 L840 596 L841 596 L842 590 L843 590 L844 585 L845 585 L845 582 L846 582 L846 578 L847 578 L847 576 L848 576 L848 572 L849 572 L850 565 L851 565 L851 560 L852 560 L853 553 L854 553 L854 550 L855 550 L857 534 L858 534 L858 530 L859 530 L859 524 L860 524 L860 518 L861 518 L861 511 L862 511 L863 491 L864 491 L865 453 L864 453 L864 434 L863 434 L862 411 L861 411 L860 396 L859 396 L859 390 L858 390 L858 385 L857 385 L857 380 L856 380 L855 370 L854 370 L853 362 L852 362 L852 359 L851 359 L850 350 L849 350 L848 344 L847 344 L847 342 L846 342 L846 337 L845 337 L845 334 L844 334 L844 332 L843 332 L843 329 L842 329 L842 326 L841 326 L840 320 L839 320 L839 318 L838 318 L838 315 L837 315 L837 313 L836 313 L835 307 L834 307 L834 305 L833 305 L833 303 L832 303 L832 301 L831 301 L830 295 L828 294 L828 292 L827 292 L827 290 L826 290 L826 287 L825 287 L825 285 L824 285 L824 283 L823 283 L823 281 L822 281 L822 279 L821 279 L819 273 L817 272 L817 270 L816 270 L816 268 L815 268 L813 262 L811 261 L811 259 L810 259 L810 257 L808 256 L806 250 L804 249 L804 247 L802 246 L802 244 L800 243 L800 241 L798 240 L798 238 L796 237 L796 235 L794 234 L794 232 L792 231 L792 229 L790 228 L790 226 L786 223 L786 221 L784 220 L784 218 L783 218 L783 217 L781 216 L781 214 L777 211 L777 209 L773 206 L773 204 L772 204 L772 203 L767 199 L767 197 L766 197 L766 196 L760 191 L760 189 L759 189 L759 188 L758 188 L758 187 L757 187 L757 186 L756 186 L756 185 L755 185 L755 184 L754 184 L754 183 L753 183 L753 182 L752 182 L752 181 L751 181 L751 180 L750 180 L750 179 L749 179 L749 178 L748 178 L748 177 L747 177 L747 176 L746 176 L746 175 L745 175 L745 174 L744 174 L744 173 L743 173 L743 172 L742 172 L742 171 L741 171 L741 170 L740 170 L735 164 L733 164 L733 163 L732 163 L732 162 L731 162 L726 156 L724 156 L720 151 L718 151 L718 149 L716 149 L715 147 L713 147 L710 143 L708 143 L705 139 L703 139 L702 137 L700 137 L697 133 L693 132 L693 131 L690 130 L688 127 L686 127 L686 126 L683 125 L682 123 L678 122 L677 120 L675 120 L675 119 L672 118 L671 116 L667 115 L666 113 L664 113 L664 112 L660 111 L659 109 L657 109 L657 108 L655 108 L655 107 L653 107 L653 106 L651 106 L651 105 L645 103 L644 101 L642 101 L642 100 L640 100 L640 99 L638 99 L638 98 L635 98 L635 97 L633 97 L633 96 L630 96 L630 95 L627 94 L627 93 L624 93 L624 92 L622 92 L622 91 L620 91 L620 90 L617 90 L617 89 L612 88 L612 87 L610 87 L610 86 L607 86 L607 85 L605 85 L605 84 L602 84 L602 83 L596 82 L596 81 L594 81 L594 80 L590 80 L590 79 L585 78 L585 77 L581 77 L581 76 L578 76 L578 75 L575 75 L575 74 L567 73 L567 72 L560 71 L560 70 L556 70 L556 69 L551 69 L551 68 L546 68 L546 67 L541 67 L541 66 L536 66 L536 65 L531 65 L531 64 L517 63 L517 62 L497 61 L497 60 L487 60 L487 59 L442 59 L442 60 L430 60 L430 61 L421 61 L421 62 L411 62 L411 63 L397 64 L397 65 L392 65 L392 66 L388 66 L388 67 L382 67 L382 68 L377 68 L377 69 L373 69 L373 70 L368 70 L368 71 L365 71 L365 72 L361 72 L361 73 L357 73 L357 74 L354 74 L354 75 L350 75 L350 76 L347 76 L347 77 L344 77 L344 78 L340 78 L340 79 L338 79 L338 80 L334 80 L334 81 L332 81 L332 82 L326 83 L326 84 L324 84 L324 85 L321 85 L321 86 L318 86 L318 87 L316 87 L316 88 L313 88 L313 89 L311 89 L311 90 L309 90 L309 91 L306 91 L306 92 L304 92 L304 93 L301 93 L301 94 L299 94 L299 95 L297 95 L297 96 L295 96 L295 97 L293 97 L293 98 L290 98 L290 99 L288 99 L287 101 L282 102 L281 104 L279 104 L279 105 L277 105 L277 106 L275 106 L275 107 L269 109 L268 111 L262 113 L261 115 L259 115 L258 117 L254 118 L254 119 L251 120 L250 122 L246 123 L246 124 L243 125 L242 127 L238 128 L235 132 L233 132 L232 134 L230 134 L228 137 L226 137 L224 140 L222 140 L220 143 L218 143 L216 146 L214 146 L210 151 L208 151 L204 156 L202 156 L202 157 L201 157 L196 163 L194 163 L194 164 L193 164 L193 165 L192 165 L192 166 L191 166 L191 167 L190 167 L190 168 L189 168 L189 169 L188 169 L188 170 L187 170 L187 171 L186 171 L186 172 L185 172 L185 173 L184 173 L184 174 L183 174 L183 175 L182 175 L182 176 L181 176 L181 177 L180 177 L180 178 L179 178 L179 179 L178 179 L178 180 L177 180 L177 181 L176 181 L176 182 L175 182 L175 183 L169 188 L169 189 L168 189 L168 191 L167 191 L167 192 L166 192 L166 193 L160 198 L160 200 L154 205 L154 207 L152 208 L152 210 L151 210 L151 211 L147 214 L147 216 L144 218 L144 220 L142 221 L142 223 L138 226 L138 228 L136 229 L136 231 L134 232 L134 234 L132 235 L132 237 L130 238 L130 240 L128 241 L128 243 L126 244 L126 246 L124 247 L124 249 L122 250 L121 254 L119 255 L117 261 L115 262 L115 264 L114 264 L112 270 L110 271 L110 273 L109 273 L109 275 L108 275 L108 277 L107 277 L107 279 L106 279 L106 281 L105 281 L105 283 L104 283 L104 285 L103 285 L103 288 L101 289 L101 292 L100 292 L99 295 L98 295 L98 298 L97 298 L97 300 L96 300 L96 303 L94 304 L94 308 L93 308 L93 310 L92 310 L92 312 L91 312 L90 318 L89 318 L89 320 L88 320 L88 323 L87 323 L86 329 L85 329 L85 331 L84 331 L84 335 L83 335 L82 342 L81 342 L80 347 L79 347 L79 350 L78 350 L78 356 L77 356 L76 363 L75 363 L75 366 L74 366 L74 371 L73 371 L72 381 L71 381 L70 390 L69 390 L69 397 L68 397 L68 405 L67 405 L67 412 L66 412 L66 422 L65 422 L65 432 L64 432 L64 478 L65 478 L65 491 L66 491 L66 502 L67 502 L68 519 L69 519 L69 525 L70 525 L70 530 L71 530 L71 535 L72 535 L72 540 L73 540 L73 546 L74 546 L74 550 L75 550 L76 558 L77 558 L77 561 L78 561 L78 566 L79 566 L79 569 L80 569 L80 572 L81 572 L81 576 L82 576 L82 579 L83 579 L83 582 L84 582 L84 586 L85 586 L85 588 L86 588 L86 591 L87 591 L87 594 L88 594 L89 600 L90 600 L90 602 L91 602 L91 604 L92 604 L92 607 L93 607 L93 609 L94 609 L94 613 L96 614 L96 617 L97 617 L98 622 L99 622 L99 624 L100 624 L100 626 L101 626 L101 628 L102 628 L102 630 L103 630 L103 633 L105 634 L105 636 L106 636 L106 638 L107 638 L107 640 L108 640 L108 642 L109 642 L109 644 L110 644 L110 646 L111 646 L111 648 L112 648 L114 654 L116 655 L118 661 L119 661 L120 664 L122 665 L123 669 L125 670 L126 674 L128 675 L128 677 L130 678 L130 680 L132 681 L132 683 L134 684 L134 686 L136 687 L136 689 L139 691 L139 693 L140 693 L140 694 L142 695 L142 697 L144 698 L144 700 L145 700 L145 701 L147 702 L147 704 L151 707 L151 709 L157 714 L157 716 L159 717 L159 719 L162 720 L162 722 L163 722 L163 723 L164 723 L164 724 L170 729 L170 731 L171 731 L171 732 L172 732 L172 733 L173 733 L173 734 L174 734 L174 735 L175 735 L175 736 L176 736 L176 737 L177 737 L177 738 L178 738 L178 739 L179 739 L179 740 L180 740 L180 741 L181 741 L181 742 L182 742 L182 743 L183 743 L183 744 L184 744 L184 745 L185 745 L185 746 L191 751 L191 752 L193 752 L194 755 L196 755 L201 761 L203 761 L208 767 L210 767 L214 772 L216 772 L218 775 L220 775 L223 779 L225 779 L226 781 L228 781 L230 784 L232 784 L234 787 L236 787 L237 789 L239 789 L240 791 L242 791 L243 793 L245 793 L245 794 L248 795 L249 797 L251 797 L251 798 L253 798 L254 800 L258 801 L259 803 L263 804 L264 806 L266 806 L266 807 L272 809 L273 811 L275 811 L275 812 L277 812 L277 813 L279 813 L279 814 L281 814 L281 815 L283 815 L283 816 L285 816 L285 817 L287 817 L287 818 L289 818 L289 819 L291 819 L291 820 L293 820 L293 821 L295 821 L295 822 L297 822 L297 823 L299 823 L299 824 L301 824 L301 825 L304 825 L304 826 L306 826 L306 827 L309 827 L309 828 L311 828 L311 829 L313 829 L313 830 L316 830 L316 831 L318 831 L318 832 L322 832 L322 833 L324 833 L324 834 L326 834 L326 835 L329 835 L329 836 L332 836 L332 837 L334 837 L334 838 L341 839 L341 840 L344 840 L344 841 L347 841 L347 842 L350 842 L350 843 L353 843 L353 844 L357 844 L357 845 L361 845 L361 846 L366 846 L366 847 L369 847 L369 848 L377 849 L377 850 L388 851 L388 852 L398 853 L398 854 L404 854 L404 855 L413 855 L413 856 L430 857 L430 858 L446 858 L446 859 Z M668 682 L666 682 L665 684 L663 684 L662 686 L660 686 L660 687 L658 687 L658 688 L655 688 L654 690 L651 690 L651 691 L648 691 L648 692 L645 692 L645 693 L632 694 L632 695 L614 695 L614 694 L609 694 L609 693 L602 693 L602 692 L598 692 L598 691 L592 690 L592 689 L587 688 L587 687 L584 686 L584 687 L583 687 L583 690 L582 690 L582 693 L581 693 L581 695 L580 695 L580 698 L579 698 L579 700 L578 700 L578 703 L576 704 L576 706 L574 707 L574 709 L573 709 L573 710 L572 710 L567 716 L565 716 L565 717 L563 717 L563 718 L561 718 L561 719 L558 719 L558 720 L543 720 L543 719 L540 719 L540 718 L536 717 L534 714 L532 714 L532 712 L528 709 L526 703 L525 703 L525 700 L524 700 L523 694 L522 694 L522 690 L521 690 L520 684 L519 684 L519 682 L518 682 L518 679 L517 679 L517 677 L516 677 L516 675 L515 675 L515 673 L514 673 L512 667 L510 666 L510 663 L508 662 L508 660 L506 659 L506 657 L504 656 L504 654 L501 652 L501 650 L497 647 L497 645 L496 645 L496 644 L495 644 L495 643 L494 643 L494 642 L493 642 L493 641 L492 641 L492 640 L491 640 L491 639 L490 639 L490 638 L489 638 L489 637 L488 637 L488 636 L487 636 L482 630 L480 630 L477 626 L475 626 L473 623 L471 623 L470 621 L468 621 L467 619 L465 619 L464 617 L462 617 L462 616 L460 616 L460 615 L444 615 L444 614 L434 613 L434 612 L427 611 L427 610 L425 610 L425 609 L423 609 L423 608 L420 608 L420 607 L418 607 L417 605 L413 604 L412 602 L410 602 L407 598 L405 598 L405 597 L404 597 L404 596 L398 591 L398 589 L395 587 L395 585 L394 585 L394 584 L392 583 L392 581 L390 580 L390 578 L389 578 L389 576 L388 576 L388 574 L387 574 L387 572 L386 572 L386 570 L385 570 L385 567 L383 567 L379 572 L377 572 L375 575 L371 576 L370 578 L368 578 L368 579 L366 579 L366 580 L364 580 L364 581 L361 581 L361 582 L359 582 L359 583 L352 584 L352 585 L339 586 L339 587 L327 587 L327 586 L314 585 L314 584 L311 584 L311 583 L304 582 L304 581 L302 581 L302 580 L300 580 L300 579 L298 579 L298 578 L292 576 L291 574 L289 574 L288 572 L286 572 L283 568 L281 568 L281 567 L279 566 L279 564 L274 560 L274 558 L271 556 L270 552 L268 551 L268 549 L267 549 L267 547 L266 547 L266 544 L265 544 L264 539 L263 539 L263 535 L262 535 L261 528 L258 529 L258 530 L249 531 L249 532 L234 532 L234 531 L229 531 L229 530 L225 530 L225 529 L222 529 L222 528 L216 527 L216 526 L210 524 L209 522 L205 521 L203 518 L201 518 L199 515 L197 515 L197 514 L196 514 L196 513 L195 513 L195 512 L194 512 L194 511 L188 506 L188 504 L186 503 L186 501 L185 501 L185 500 L183 499 L183 497 L181 496 L181 493 L180 493 L180 491 L178 490 L178 487 L177 487 L176 482 L175 482 L174 472 L173 472 L173 466 L172 466 L172 456 L173 456 L174 443 L175 443 L175 440 L176 440 L177 433 L179 432 L179 429 L180 429 L182 423 L183 423 L184 420 L185 420 L185 416 L183 416 L183 415 L182 415 L182 414 L176 409 L176 407 L175 407 L174 404 L171 402 L171 400 L170 400 L170 398 L168 397 L168 395 L167 395 L167 393 L166 393 L166 390 L165 390 L165 388 L164 388 L164 385 L163 385 L163 382 L162 382 L162 378 L161 378 L161 372 L160 372 L160 353 L161 353 L161 347 L162 347 L162 344 L163 344 L164 338 L165 338 L165 336 L166 336 L166 333 L167 333 L168 329 L170 328 L171 324 L173 323 L173 321 L176 319 L176 317 L177 317 L177 316 L178 316 L178 315 L179 315 L179 314 L180 314 L180 313 L181 313 L186 307 L188 307 L188 306 L189 306 L190 304 L192 304 L194 301 L196 301 L196 300 L198 300 L198 299 L200 299 L200 298 L202 298 L202 297 L204 297 L204 296 L207 296 L207 295 L210 295 L210 294 L213 294 L213 293 L217 293 L217 292 L222 292 L222 291 L246 291 L246 292 L248 292 L248 291 L247 291 L247 285 L246 285 L246 266 L247 266 L247 261 L248 261 L248 257 L249 257 L249 254 L250 254 L250 250 L251 250 L251 248 L252 248 L252 246 L253 246 L253 244 L254 244 L254 241 L256 240 L257 236 L260 234 L260 232 L263 230 L263 228 L264 228 L264 227 L265 227 L265 226 L266 226 L266 225 L267 225 L267 224 L268 224 L273 218 L275 218 L277 215 L279 215 L281 212 L283 212 L284 210 L286 210 L286 209 L288 209 L288 208 L290 208 L290 207 L292 207 L292 206 L294 206 L294 205 L297 205 L297 204 L299 204 L299 203 L302 203 L302 202 L304 202 L304 201 L308 201 L308 200 L313 200 L313 199 L318 199 L318 198 L327 198 L327 197 L340 197 L340 198 L350 198 L350 199 L361 200 L361 201 L365 201 L365 202 L368 202 L368 203 L371 203 L371 204 L377 205 L377 206 L379 206 L379 207 L381 207 L381 208 L383 208 L383 209 L389 211 L389 212 L392 213 L394 216 L396 216 L400 221 L403 222 L403 224 L408 228 L408 230 L409 230 L410 233 L412 234 L412 236 L413 236 L413 238 L414 238 L414 241 L415 241 L415 243 L416 243 L416 246 L419 245 L419 243 L420 243 L421 240 L424 238 L424 236 L425 236 L425 235 L426 235 L426 234 L427 234 L427 233 L428 233 L428 232 L429 232 L429 231 L430 231 L430 230 L431 230 L431 229 L432 229 L432 228 L433 228 L433 227 L434 227 L439 221 L441 221 L442 219 L444 219 L446 216 L450 215 L451 213 L453 213 L453 212 L455 212 L455 211 L459 210 L460 208 L463 208 L463 207 L465 207 L465 206 L467 206 L467 205 L471 205 L471 204 L474 204 L474 203 L477 203 L477 202 L480 202 L480 201 L484 201 L484 200 L491 200 L491 199 L497 199 L497 198 L518 197 L518 198 L533 198 L533 199 L540 199 L540 200 L552 201 L552 202 L555 202 L555 203 L558 203 L558 204 L561 204 L561 205 L568 206 L568 207 L573 208 L573 209 L575 209 L575 210 L578 210 L578 211 L582 212 L583 214 L589 216 L590 218 L592 218 L593 220 L595 220 L595 221 L598 222 L599 224 L601 224 L606 230 L608 230 L608 232 L609 232 L609 233 L615 238 L615 240 L617 240 L617 242 L619 243 L619 245 L622 247 L623 251 L625 252 L626 256 L628 257 L628 260 L629 260 L630 265 L631 265 L632 270 L633 270 L634 279 L635 279 L635 285 L636 285 L636 302 L635 302 L635 309 L645 308 L645 307 L664 307 L664 308 L676 309 L676 310 L680 310 L680 311 L686 312 L686 313 L688 313 L688 314 L690 314 L690 315 L693 315 L693 316 L697 317 L698 319 L702 320 L702 321 L705 322 L707 325 L709 325 L709 326 L710 326 L710 327 L711 327 L711 328 L712 328 L712 329 L713 329 L713 330 L714 330 L714 331 L715 331 L715 332 L716 332 L716 333 L717 333 L717 334 L723 339 L723 341 L725 342 L725 344 L728 346 L728 348 L729 348 L729 350 L730 350 L730 352 L731 352 L731 354 L732 354 L732 356 L733 356 L733 358 L734 358 L735 364 L736 364 L736 368 L737 368 L737 372 L738 372 L738 380 L739 380 L738 400 L737 400 L737 404 L736 404 L736 407 L735 407 L735 410 L734 410 L733 416 L732 416 L730 422 L728 423 L728 426 L731 427 L732 429 L734 429 L736 432 L738 432 L738 433 L739 433 L739 434 L740 434 L740 435 L741 435 L741 436 L742 436 L742 437 L743 437 L743 438 L749 443 L749 445 L750 445 L750 446 L753 448 L753 450 L755 451 L755 453 L756 453 L756 455 L758 456 L758 458 L759 458 L759 460 L760 460 L760 462 L761 462 L761 464 L762 464 L762 467 L763 467 L763 469 L764 469 L764 473 L765 473 L765 475 L766 475 L766 480 L767 480 L767 484 L768 484 L768 490 L769 490 L769 509 L768 509 L767 520 L766 520 L766 523 L765 523 L765 526 L764 526 L764 530 L763 530 L763 532 L762 532 L762 534 L761 534 L761 536 L760 536 L760 538 L759 538 L757 544 L756 544 L756 545 L754 546 L754 548 L750 551 L750 553 L749 553 L745 558 L743 558 L739 563 L737 563 L737 564 L735 564 L734 566 L732 566 L732 567 L730 567 L730 568 L727 568 L727 569 L725 569 L725 570 L718 571 L718 572 L713 572 L713 573 L712 573 L711 582 L710 582 L710 585 L709 585 L709 588 L708 588 L707 592 L705 593 L704 597 L703 597 L703 598 L702 598 L702 599 L701 599 L701 600 L700 600 L700 601 L699 601 L694 607 L691 608 L692 616 L693 616 L693 621 L694 621 L694 636 L693 636 L693 643 L692 643 L692 647 L691 647 L690 653 L689 653 L689 655 L688 655 L688 657 L687 657 L685 663 L684 663 L683 666 L681 667 L681 669 L680 669 L680 670 L675 674 L675 676 L672 677 Z M657 666 L657 665 L658 665 L658 664 L659 664 L659 663 L665 658 L665 656 L666 656 L667 653 L669 652 L670 647 L671 647 L671 645 L672 645 L673 638 L674 638 L674 629 L675 629 L675 628 L674 628 L674 620 L673 620 L672 615 L670 615 L670 614 L660 614 L660 613 L655 613 L655 612 L652 612 L652 611 L650 611 L649 609 L645 608 L644 606 L642 606 L642 605 L637 601 L637 599 L636 599 L636 591 L637 591 L637 589 L638 589 L639 587 L644 586 L644 585 L647 585 L647 586 L652 587 L652 588 L654 589 L654 591 L656 591 L656 592 L658 592 L659 594 L662 594 L662 595 L676 595 L676 594 L680 593 L681 591 L683 591 L683 590 L687 587 L687 585 L688 585 L689 582 L691 581 L692 573 L693 573 L692 560 L691 560 L691 558 L690 558 L690 555 L689 555 L688 552 L686 551 L686 549 L683 548 L681 545 L680 545 L678 548 L674 549 L673 551 L670 551 L670 552 L665 553 L665 554 L660 554 L660 555 L647 556 L647 555 L642 555 L642 554 L634 553 L634 552 L630 551 L630 550 L626 547 L626 539 L627 539 L627 537 L628 537 L630 534 L633 534 L633 533 L638 533 L638 534 L641 534 L641 535 L644 535 L644 536 L658 536 L658 535 L661 535 L661 534 L667 532 L667 531 L672 527 L672 525 L674 524 L674 522 L675 522 L675 520 L676 520 L676 516 L677 516 L677 506 L676 506 L676 501 L675 501 L675 498 L674 498 L675 491 L676 491 L678 488 L680 488 L680 487 L688 487 L689 489 L692 490 L692 492 L693 492 L693 494 L694 494 L695 501 L696 501 L696 507 L697 507 L696 519 L695 519 L695 524 L694 524 L693 530 L694 530 L694 531 L695 531 L695 532 L696 532 L696 533 L702 538 L702 540 L704 541 L705 545 L707 546 L707 548 L708 548 L708 550 L709 550 L709 553 L715 553 L715 552 L721 551 L721 550 L723 550 L724 548 L728 547 L730 544 L732 544 L732 542 L734 542 L734 540 L736 540 L736 538 L739 536 L739 534 L741 533 L741 531 L742 531 L742 529 L743 529 L743 527 L744 527 L744 525 L745 525 L745 522 L746 522 L746 519 L747 519 L747 516 L748 516 L748 512 L749 512 L749 504 L750 504 L749 489 L748 489 L748 484 L747 484 L746 476 L745 476 L744 471 L742 470 L742 468 L741 468 L739 462 L738 462 L737 459 L734 457 L734 455 L733 455 L733 454 L732 454 L727 448 L725 448 L722 444 L716 442 L715 440 L713 440 L713 439 L711 439 L711 438 L709 438 L709 437 L706 437 L706 436 L703 436 L703 435 L700 435 L700 434 L696 434 L696 433 L690 433 L690 432 L673 432 L673 433 L667 433 L667 434 L659 435 L659 434 L656 434 L656 433 L652 430 L651 423 L652 423 L653 419 L654 419 L655 417 L657 417 L657 416 L661 416 L661 415 L665 415 L665 414 L672 414 L672 413 L692 413 L692 414 L699 414 L699 415 L708 416 L708 417 L711 416 L711 414 L712 414 L712 412 L713 412 L713 410 L714 410 L714 408 L715 408 L715 406 L716 406 L716 403 L717 403 L717 401 L718 401 L718 394 L719 394 L719 377 L718 377 L718 371 L717 371 L717 369 L716 369 L715 363 L714 363 L713 359 L711 358 L710 354 L707 352 L707 350 L706 350 L706 349 L705 349 L705 348 L704 348 L704 347 L703 347 L703 346 L702 346 L697 340 L695 340 L694 338 L692 338 L691 336 L687 335 L687 334 L684 333 L684 332 L681 332 L681 331 L676 330 L676 329 L673 329 L673 328 L668 328 L668 327 L648 326 L648 327 L640 327 L640 328 L632 329 L632 331 L633 331 L633 333 L634 333 L634 335 L635 335 L635 337 L636 337 L636 339 L637 339 L637 341 L638 341 L639 347 L640 347 L641 357 L642 357 L642 368 L641 368 L641 374 L640 374 L640 378 L639 378 L638 382 L635 383 L634 385 L627 385 L627 384 L623 383 L622 380 L621 380 L621 378 L620 378 L620 374 L621 374 L621 370 L622 370 L622 354 L621 354 L621 352 L620 352 L620 348 L619 348 L619 346 L617 345 L616 341 L615 341 L615 340 L614 340 L614 339 L613 339 L608 333 L606 333 L605 331 L602 331 L602 330 L600 330 L600 329 L597 329 L597 328 L590 328 L590 327 L575 329 L575 330 L569 332 L568 334 L566 334 L566 335 L564 335 L564 336 L557 336 L557 335 L552 331 L552 329 L551 329 L551 324 L552 324 L553 320 L556 319 L558 316 L560 316 L560 315 L562 315 L562 314 L564 314 L564 313 L566 313 L566 312 L569 312 L569 311 L571 311 L571 310 L584 309 L584 308 L591 308 L591 309 L600 309 L600 310 L604 310 L604 311 L607 311 L607 312 L613 314 L614 309 L615 309 L617 292 L616 292 L615 278 L614 278 L614 275 L613 275 L612 269 L611 269 L609 263 L607 262 L606 258 L605 258 L605 257 L603 256 L603 254 L601 253 L601 251 L600 251 L600 250 L599 250 L599 249 L598 249 L598 248 L597 248 L597 247 L596 247 L596 246 L595 246 L590 240 L588 240 L587 238 L585 238 L583 235 L581 235 L580 233 L578 233 L578 232 L572 230 L571 228 L568 228 L568 227 L566 227 L566 226 L564 226 L564 225 L562 225 L562 224 L555 223 L555 222 L551 222 L551 221 L544 220 L544 219 L539 219 L539 218 L531 218 L531 217 L498 217 L498 218 L492 218 L492 219 L484 220 L484 221 L481 221 L481 222 L477 222 L477 223 L474 223 L474 224 L472 224 L472 225 L470 225 L470 226 L468 226 L468 227 L466 227 L466 228 L460 230 L460 231 L457 232 L456 234 L454 234 L451 238 L449 238 L449 239 L448 239 L448 240 L447 240 L447 241 L446 241 L446 242 L440 247 L440 249 L439 249 L438 252 L437 252 L438 254 L440 254 L441 256 L443 256 L444 258 L446 258 L446 259 L447 259 L447 260 L448 260 L448 261 L449 261 L449 262 L455 267 L455 269 L457 270 L457 272 L459 273 L459 275 L460 275 L460 277 L461 277 L461 279 L462 279 L462 283 L463 283 L463 286 L464 286 L464 292 L465 292 L465 295 L464 295 L464 298 L463 298 L463 300 L462 300 L461 302 L459 302 L459 303 L451 303 L451 302 L449 302 L449 301 L446 299 L446 295 L445 295 L445 291 L444 291 L443 285 L442 285 L441 281 L437 278 L437 276 L436 276 L435 274 L433 274 L432 272 L430 272 L429 270 L426 270 L426 269 L424 269 L424 268 L419 268 L419 267 L406 268 L406 269 L403 269 L403 270 L401 270 L400 272 L396 273 L396 274 L391 278 L391 280 L389 281 L389 283 L388 283 L388 285 L387 285 L387 287 L386 287 L386 290 L385 290 L385 295 L384 295 L384 297 L383 297 L380 301 L378 301 L378 302 L372 302 L372 301 L370 301 L370 300 L366 297 L366 285 L367 285 L367 282 L368 282 L368 280 L369 280 L369 277 L370 277 L371 273 L372 273 L373 270 L375 269 L375 267 L376 267 L376 266 L377 266 L377 265 L378 265 L378 264 L379 264 L384 258 L386 258 L386 257 L389 256 L390 254 L392 254 L392 253 L394 253 L394 252 L397 251 L397 248 L396 248 L394 242 L393 242 L393 241 L391 240 L391 238 L390 238 L385 232 L383 232 L380 228 L378 228 L378 227 L376 227 L376 226 L374 226 L374 225 L372 225 L372 224 L370 224 L370 223 L367 223 L367 222 L364 222 L364 221 L358 220 L358 219 L348 218 L348 217 L335 217 L335 216 L315 218 L315 219 L311 219 L311 220 L308 220 L308 221 L306 221 L306 222 L303 222 L303 223 L297 225 L296 227 L292 228 L292 229 L289 230 L288 232 L286 232 L286 233 L280 238 L280 240 L278 240 L278 242 L276 243 L276 245 L273 247 L273 249 L272 249 L272 251 L271 251 L271 253 L270 253 L270 256 L268 257 L268 261 L267 261 L267 265 L266 265 L266 286 L267 286 L267 289 L268 289 L268 293 L269 293 L269 295 L270 295 L270 297 L271 297 L271 300 L272 300 L272 307 L271 307 L270 312 L269 312 L267 315 L265 315 L265 316 L258 316 L258 315 L256 315 L256 314 L254 314 L254 313 L246 312 L246 311 L243 311 L243 310 L225 310 L225 311 L220 311 L220 312 L217 312 L217 313 L213 313 L213 314 L209 315 L208 317 L205 317 L203 320 L201 320 L199 323 L197 323 L197 324 L192 328 L192 330 L189 332 L189 334 L187 335 L186 339 L185 339 L184 342 L183 342 L183 345 L182 345 L182 348 L181 348 L181 351 L180 351 L180 357 L179 357 L180 374 L181 374 L181 378 L182 378 L183 384 L184 384 L185 388 L187 389 L188 393 L189 393 L189 394 L194 398 L194 400 L196 400 L200 405 L202 405 L202 406 L204 406 L205 408 L207 408 L207 409 L209 409 L209 410 L212 410 L212 411 L216 411 L216 412 L220 412 L220 413 L238 413 L238 412 L241 412 L241 411 L244 411 L244 410 L252 409 L252 410 L256 411 L256 412 L258 413 L258 415 L259 415 L259 423 L257 424 L257 426 L255 426 L254 428 L251 428 L251 429 L245 430 L245 431 L240 431 L240 432 L217 432 L217 431 L212 431 L212 430 L209 430 L209 429 L206 429 L206 428 L202 428 L202 430 L199 432 L199 434 L198 434 L198 436 L197 436 L197 438 L196 438 L196 441 L195 441 L195 443 L194 443 L193 452 L192 452 L192 469 L193 469 L193 474 L194 474 L194 478 L195 478 L195 480 L196 480 L196 482 L197 482 L199 488 L201 489 L201 491 L202 491 L202 492 L204 493 L204 495 L205 495 L209 500 L211 500 L214 504 L218 505 L219 507 L221 507 L221 508 L223 508 L223 509 L226 509 L226 510 L229 510 L229 511 L232 511 L232 512 L237 512 L237 513 L246 513 L246 512 L254 511 L254 509 L253 509 L253 508 L250 506 L250 504 L248 503 L248 501 L247 501 L247 499 L246 499 L246 496 L245 496 L245 494 L244 494 L244 490 L243 490 L243 475 L244 475 L244 471 L245 471 L245 468 L246 468 L248 462 L249 462 L251 459 L253 459 L253 458 L255 458 L255 457 L258 457 L258 458 L262 458 L262 459 L266 462 L266 464 L267 464 L267 469 L266 469 L266 472 L265 472 L265 474 L263 475 L263 479 L262 479 L262 485 L263 485 L263 490 L264 490 L264 492 L267 494 L267 496 L268 496 L270 499 L272 499 L272 500 L274 500 L274 501 L276 501 L276 502 L278 502 L278 503 L280 503 L280 504 L285 504 L285 505 L301 504 L301 503 L307 502 L307 501 L312 500 L312 499 L320 499 L320 500 L322 500 L322 501 L324 502 L326 509 L325 509 L324 514 L323 514 L321 517 L318 517 L318 518 L316 518 L316 519 L313 519 L313 520 L311 520 L311 521 L307 521 L307 522 L304 522 L304 523 L296 523 L296 524 L284 524 L284 523 L281 523 L281 524 L280 524 L280 526 L281 526 L281 531 L282 531 L282 534 L283 534 L284 540 L286 541 L286 543 L287 543 L287 545 L290 547 L290 549 L291 549 L291 550 L292 550 L292 551 L293 551 L298 557 L300 557 L302 560 L305 560 L305 561 L307 561 L307 562 L309 562 L309 563 L311 563 L311 564 L313 564 L313 565 L322 566 L322 567 L330 567 L330 568 L334 568 L334 567 L344 567 L344 566 L349 566 L349 565 L355 564 L355 563 L357 563 L357 562 L363 560 L363 559 L364 559 L367 555 L369 555 L369 554 L371 553 L371 551 L374 549 L374 547 L375 547 L375 545 L376 545 L376 543 L377 543 L377 540 L378 540 L378 535 L379 535 L379 530 L380 530 L380 528 L381 528 L383 525 L390 524 L390 525 L395 526 L395 527 L397 528 L397 530 L398 530 L399 548 L400 548 L400 552 L401 552 L402 560 L403 560 L403 562 L404 562 L404 564 L405 564 L405 566 L406 566 L408 572 L411 574 L411 576 L414 578 L414 580 L416 580 L421 586 L423 586 L424 588 L426 588 L427 590 L429 590 L429 591 L431 591 L431 592 L434 592 L434 593 L437 593 L437 594 L440 594 L440 595 L455 596 L455 595 L463 595 L463 594 L465 594 L465 593 L468 593 L468 592 L474 590 L476 587 L478 587 L478 586 L479 586 L479 585 L480 585 L480 584 L486 579 L486 577 L488 576 L488 574 L489 574 L489 572 L490 572 L490 569 L491 569 L491 566 L492 566 L492 562 L493 562 L493 560 L494 560 L495 553 L496 553 L499 549 L501 549 L501 548 L508 548 L508 549 L512 550 L512 552 L514 553 L514 561 L513 561 L513 564 L512 564 L512 567 L511 567 L511 582 L512 582 L512 586 L513 586 L513 589 L514 589 L515 594 L517 595 L517 597 L519 598 L519 600 L520 600 L520 601 L521 601 L521 602 L522 602 L527 608 L529 608 L531 611 L537 613 L538 615 L541 615 L541 616 L544 616 L544 617 L547 617 L547 618 L551 618 L551 619 L566 619 L566 618 L569 618 L569 617 L572 617 L572 616 L575 616 L576 614 L578 614 L578 613 L579 613 L579 612 L585 607 L585 605 L586 605 L586 603 L587 603 L587 600 L588 600 L589 592 L588 592 L588 587 L587 587 L587 584 L586 584 L586 580 L587 580 L588 576 L590 576 L590 574 L593 574 L593 573 L599 573 L599 574 L601 574 L601 575 L604 576 L604 578 L605 578 L605 580 L606 580 L606 583 L607 583 L607 586 L608 586 L608 601 L607 601 L607 605 L606 605 L606 608 L605 608 L605 610 L604 610 L603 615 L601 616 L601 618 L598 620 L598 622 L597 622 L592 628 L590 628 L589 630 L585 631 L584 633 L581 633 L581 634 L578 634 L578 635 L576 635 L576 636 L572 636 L572 637 L569 638 L569 640 L570 640 L570 644 L571 644 L571 646 L572 646 L572 649 L574 650 L574 653 L578 656 L578 658 L579 658 L584 664 L586 664 L586 665 L589 666 L590 668 L592 668 L592 669 L594 669 L594 670 L597 670 L597 671 L599 671 L599 672 L605 673 L605 674 L609 674 L609 675 L617 675 L617 676 L638 675 L638 674 L641 674 L641 673 L647 672 L647 671 L651 670 L652 668 L654 668 L655 666 Z M544 398 L541 398 L541 399 L535 399 L535 398 L532 398 L532 397 L530 396 L530 394 L529 394 L529 392 L528 392 L528 387 L529 387 L529 384 L530 384 L530 376 L531 376 L531 374 L530 374 L529 364 L528 364 L528 361 L527 361 L526 357 L525 357 L524 353 L523 353 L523 352 L520 350 L520 348 L518 348 L514 343 L512 343 L512 342 L510 342 L510 341 L507 341 L507 340 L504 340 L504 339 L491 338 L491 339 L486 339 L486 340 L482 340 L482 341 L480 341 L480 342 L478 342 L478 343 L475 343 L475 344 L474 344 L473 346 L471 346 L466 352 L464 352 L464 353 L462 353 L462 354 L457 354 L457 353 L455 353 L455 352 L453 352 L453 351 L451 350 L451 348 L450 348 L450 340 L452 339 L453 336 L455 336 L456 333 L458 333 L460 330 L462 330 L462 329 L465 328 L466 326 L471 325 L471 324 L473 324 L473 323 L475 323 L475 322 L478 322 L478 321 L482 321 L482 320 L494 320 L494 319 L496 319 L496 320 L508 320 L508 321 L511 321 L511 322 L517 323 L518 325 L521 325 L522 327 L526 328 L526 329 L529 330 L529 331 L530 331 L530 332 L531 332 L531 333 L537 338 L537 340 L540 342 L540 344 L542 345 L542 347 L543 347 L543 349 L544 349 L544 351 L545 351 L545 353 L546 353 L546 356 L547 356 L547 358 L548 358 L549 369 L550 369 L550 382 L549 382 L548 392 L547 392 L547 394 L546 394 L546 396 L545 396 Z M411 412 L409 412 L409 413 L402 413 L402 412 L398 411 L398 409 L396 408 L396 400 L397 400 L398 395 L399 395 L399 393 L400 393 L401 381 L400 381 L400 376 L399 376 L399 374 L398 374 L398 371 L396 370 L396 368 L395 368 L390 362 L388 362 L388 361 L385 360 L385 359 L379 358 L379 357 L368 357 L368 358 L364 358 L364 359 L358 361 L356 364 L354 364 L354 366 L350 369 L350 371 L349 371 L349 373 L348 373 L348 375 L347 375 L347 378 L344 380 L344 382 L338 384 L338 383 L333 383 L333 382 L331 382 L331 381 L329 380 L329 377 L328 377 L328 371 L329 371 L330 365 L331 365 L332 361 L334 360 L334 358 L336 357 L336 355 L337 355 L337 354 L338 354 L343 348 L345 348 L347 345 L351 344 L352 342 L355 342 L355 341 L360 340 L360 339 L365 339 L365 338 L382 338 L382 339 L386 339 L386 340 L392 341 L392 342 L398 344 L399 346 L401 346 L401 347 L402 347 L404 350 L406 350 L406 351 L409 353 L409 355 L413 358 L413 360 L414 360 L414 362 L415 362 L415 364 L416 364 L416 366 L417 366 L417 368 L418 368 L418 372 L419 372 L419 376 L420 376 L420 393 L419 393 L418 401 L417 401 L417 403 L416 403 L414 409 L413 409 Z M562 512 L560 512 L560 513 L558 513 L558 514 L556 514 L556 515 L554 515 L554 516 L552 516 L552 517 L550 517 L550 518 L547 518 L547 519 L542 519 L542 520 L538 520 L538 521 L522 521 L522 520 L518 520 L518 519 L510 518 L510 517 L508 517 L508 516 L502 514 L501 512 L499 512 L498 510 L496 510 L496 509 L495 509 L495 508 L494 508 L494 507 L493 507 L493 506 L492 506 L492 505 L486 500 L486 498 L483 496 L483 494 L481 493 L481 490 L480 490 L480 488 L479 488 L479 486 L478 486 L478 482 L477 482 L477 480 L476 480 L476 475 L475 475 L475 457 L476 457 L476 452 L477 452 L477 448 L478 448 L478 446 L479 446 L479 443 L478 443 L478 441 L476 440 L476 438 L473 436 L473 434 L472 434 L472 432 L471 432 L471 430 L470 430 L470 427 L469 427 L469 425 L468 425 L467 418 L466 418 L466 397 L467 397 L468 392 L469 392 L471 389 L473 389 L473 388 L480 388 L480 389 L482 389 L482 390 L486 393 L485 413 L486 413 L487 420 L488 420 L490 426 L492 427 L492 429 L493 429 L497 434 L499 434 L500 436 L502 436 L502 437 L504 437 L504 438 L506 438 L506 439 L508 439 L508 440 L523 441 L523 440 L527 440 L527 439 L533 437 L533 436 L538 432 L538 430 L539 430 L539 428 L540 428 L540 424 L541 424 L541 422 L542 422 L544 419 L546 419 L546 418 L554 418 L556 421 L558 421 L558 424 L559 424 L559 432 L558 432 L558 436 L557 436 L556 440 L554 441 L554 443 L552 444 L552 446 L551 446 L548 450 L546 450 L544 453 L542 453 L542 454 L540 454 L540 455 L538 455 L538 456 L536 456 L536 457 L534 457 L534 458 L529 458 L529 459 L525 459 L525 460 L512 460 L512 459 L506 459 L506 458 L502 458 L502 457 L499 457 L499 456 L496 455 L496 456 L495 456 L495 461 L494 461 L494 471 L495 471 L495 475 L496 475 L497 481 L498 481 L499 485 L502 487 L502 489 L503 489 L508 495 L510 495 L510 496 L512 496 L513 498 L515 498 L515 499 L517 499 L517 500 L520 500 L520 501 L525 501 L525 502 L535 502 L535 501 L543 500 L543 499 L545 499 L545 498 L547 498 L547 497 L549 497 L549 496 L551 496 L552 494 L557 493 L557 492 L564 494 L564 495 L567 497 L567 499 L568 499 L568 505 L567 505 L567 507 L566 507 Z M590 553 L570 553 L570 552 L566 552 L566 551 L564 551 L564 550 L561 548 L561 545 L560 545 L561 537 L562 537 L563 535 L567 534 L567 533 L573 533 L573 534 L588 534 L588 533 L594 532 L594 531 L600 529 L602 526 L604 526 L604 525 L610 520 L610 518 L611 518 L612 515 L613 515 L613 512 L615 511 L616 502 L617 502 L617 490 L616 490 L615 482 L614 482 L612 476 L609 474 L609 472 L608 472 L608 471 L607 471 L607 470 L606 470 L601 464 L597 463 L596 461 L594 461 L594 460 L592 460 L592 459 L590 459 L590 458 L579 457 L579 456 L573 456 L573 455 L571 455 L571 454 L567 451 L567 442 L568 442 L571 438 L574 438 L574 437 L583 437 L583 438 L589 438 L589 439 L592 439 L592 440 L596 440 L596 441 L599 441 L599 442 L601 442 L601 443 L607 445 L608 447 L612 448 L615 452 L617 452 L617 453 L622 457 L622 459 L623 459 L623 460 L626 462 L626 464 L628 465 L628 467 L629 467 L629 469 L630 469 L630 471 L631 471 L631 473 L632 473 L632 475 L633 475 L634 482 L635 482 L635 486 L636 486 L636 507 L635 507 L635 511 L634 511 L633 518 L632 518 L632 520 L631 520 L631 522 L630 522 L628 528 L626 529 L626 531 L625 531 L625 532 L624 532 L624 533 L623 533 L623 534 L622 534 L622 535 L621 535 L621 536 L620 536 L615 542 L613 542 L613 543 L610 544 L609 546 L607 546 L607 547 L605 547 L605 548 L602 548 L602 549 L600 549 L600 550 L598 550 L598 551 L590 552 Z M427 496 L424 497 L424 498 L421 499 L421 500 L418 500 L418 501 L415 501 L415 502 L412 502 L412 503 L402 503 L402 504 L388 503 L388 502 L384 502 L384 501 L378 500 L378 499 L372 497 L371 495 L369 495 L368 493 L366 493 L366 492 L365 492 L365 491 L364 491 L364 490 L363 490 L363 489 L357 484 L356 480 L354 479 L354 476 L353 476 L353 473 L352 473 L352 469 L351 469 L352 462 L353 462 L357 457 L365 457 L365 458 L367 458 L367 459 L370 461 L370 463 L371 463 L371 468 L372 468 L372 471 L374 472 L374 474 L375 474 L377 477 L379 477 L381 480 L384 480 L385 482 L388 482 L388 483 L390 483 L390 484 L394 484 L394 485 L403 485 L403 484 L408 484 L408 483 L414 482 L414 481 L416 481 L416 480 L422 480 L422 481 L424 481 L424 482 L428 485 L428 489 L429 489 L429 491 L428 491 Z M556 700 L556 699 L558 698 L558 696 L560 695 L560 693 L561 693 L561 690 L562 690 L562 688 L563 688 L564 681 L565 681 L565 679 L566 679 L567 674 L566 674 L566 672 L561 668 L561 666 L558 664 L558 662 L557 662 L556 659 L555 659 L555 656 L554 656 L554 654 L553 654 L553 652 L552 652 L552 649 L551 649 L550 638 L549 638 L549 637 L540 636 L540 635 L538 635 L538 634 L535 634 L535 633 L532 633 L532 632 L530 632 L530 631 L527 631 L526 629 L524 629 L524 628 L522 628 L521 626 L519 626 L518 624 L516 624 L516 623 L515 623 L514 621 L512 621 L512 620 L506 615 L506 613 L502 610 L502 608 L500 607 L500 605 L499 605 L499 603 L497 602 L497 599 L496 599 L496 597 L495 597 L495 598 L494 598 L493 600 L491 600 L488 604 L484 605 L483 608 L485 608 L486 610 L488 610 L488 611 L489 611 L491 614 L493 614 L498 620 L500 620 L500 621 L502 622 L502 624 L504 624 L504 625 L506 626 L506 628 L507 628 L507 629 L508 629 L508 630 L514 635 L514 637 L518 640 L518 642 L520 643 L520 645 L522 646 L522 648 L523 648 L524 651 L526 652 L527 656 L529 657 L529 659 L530 659 L530 661 L531 661 L531 663 L532 663 L532 665 L533 665 L533 667 L534 667 L534 670 L535 670 L535 672 L536 672 L536 674 L537 674 L538 680 L539 680 L539 682 L540 682 L540 686 L541 686 L541 688 L542 688 L543 696 L545 697 L545 699 L548 700 L548 701 L554 701 L554 700 Z"/>
</svg>
